PathFileType	4	(x/y/z)	S02_P20_T45
DataRate	CameraRate	NumFrames	NumMarkers	Units	OrigDataRate	OrigDataStartFrame	OrigNumFrames
240	240	7	51	mm	240	131	347
Frame#	Time	Sternum			R.Acromium			L.Acromium			Top.Head			R.ASIS			L.ASIS			R.PSIS			L.PSIS			R.Great.Tro			L.Great.Tro			R.Iliac.Crest			L.Iliac.Crest			V.Sacral			R.Thigh.Upper.Post			R.Thigh.Lower.Ant			R.Thigh.Lower.Post			R.Thigh.Upper.Ant			R.Knee.Lat			R.Knee.Med			R.Shank.Upper.Post			R.Shank.Lower.Ant			R.Shank.Lower.Post			R.Shank.Upper.Ant			R.Ankle.Lat			R.Ankle.Med			R.Heel.Upper			R.Heel.Med			R.Heel.Lat			R.Toe.Lat			R.Toe.Med			R.Toe.Tip			L.Thigh.Upper.Post			L.Thigh.Lower.Ant			L.Thigh.Lower.Post			L.Thigh.Upper.Ant			L.Knee.Lat			L.Knee.Med			L.Shank.Upper.Post			L.Shank.Lower.Ant			L.Shank.Lower.Post			L.Shank.Upper.Ant			L.Ankle.Lat			L.Ankle.Med			L.Heel.Upper			L.Heel.Med			L.Heel.Lat			L.Toe.Lat			L.Toe.Med			L.Toe.Tip			Cervical.Spine			Back			
		X1	Y1	Z1	X2	Y2	Z2	X3	Y3	Z3	X4	Y4	Z4	X5	Y5	Z5	X6	Y6	Z6	X7	Y7	Z7	X8	Y8	Z8	X9	Y9	Z9	X10	Y10	Z10	X11	Y11	Z11	X12	Y12	Z12	X13	Y13	Z13	X14	Y14	Z14	X15	Y15	Z15	X16	Y16	Z16	X17	Y17	Z17	X18	Y18	Z18	X19	Y19	Z19	X20	Y20	Z20	X21	Y21	Z21	X22	Y22	Z22	X23	Y23	Z23	X24	Y24	Z24	X25	Y25	Z25	X26	Y26	Z26	X27	Y27	Z27	X28	Y28	Z28	X29	Y29	Z29	X30	Y30	Z30	X31	Y31	Z31	X32	Y32	Z32	X33	Y33	Z33	X34	Y34	Z34	X35	Y35	Z35	X36	Y36	Z36	X37	Y37	Z37	X38	Y38	Z38	X39	Y39	Z39	X40	Y40	Z40	X41	Y41	Z41	X42	Y42	Z42	X43	Y43	Z43	X44	Y44	Z44	X45	Y45	Z45	X46	Y46	Z46	X47	Y47	Z47	X48	Y48	Z48	X49	Y49	Z49	X50	Y50	Z50	X51	Y51	Z51	

131	0.54167	-575.57	1059.6	307.95	-678.56	1306	448.47	-672.61	1302.3	155.65	-607.1	1590.6	305.57	-608.42	903.8	404.19	-613.79	883.81	191.02	-825.94	939.75	362.14	-834.29	942.01	289.21	-659.38	798.14	497.27	-755.01	799.16	113.52	-710.66	946.15	468.83	-741.56	937.76	135.67	-855.17	892.28	323.45	-577.22	605.51	467.1	-502.35	555.88	418.42	-560.82	519.43	442.82	-523.32	640.5	440.83	-517.19	456.49	419.85	-539.86	447.53	278.29	-579.81	247.14	407.2	-504.02	172.63	376.4	-569.45	175.29	393.43	-508.72	240.5	395.42	-553.74	86.008	375.07	-547.26	100.76	291.64	-614.65	70.537	319.62	-599.43	38.731	292.78	-609.63	40.2	356.29	-447.3	42.192	396.42	-415.64	34.888	289.71	-368.5	65.097	344.04	-799.51	576.97	149.7	-730.81	490.9	138.67	-805.55	487.88	168.45	-731.86	585.25	124.03	-764.94	414.14	147.05	-748.34	404.49	283.81	-939.19	341.73	167.92	-948.29	231.22	173.97	-991.09	290.75	186.12	-900.56	289.79	157.32	-1048.8	181.98	195.93	-1034.1	178.32	276.95	-1111	201.01	233.62	-1118.8	184.18	272.19	-1129.5	174.58	211.63	-1025.7	51.246	190.15	-996.57	62.082	295.82	-946.28	42.646	252.73	-751.49	1372.7	301.16	-834.85	1123.3	304.34
132	0.54583	-569.72	1059.9	308.12	-672.32	1306	449.07	-667.2	1302.6	156.27	-601.26	1590.8	306.29	-602.47	904.3	404.69	-607.9	884.01	191.57	-820.12	939.97	361.98	-828.33	942	288.99	-653.4	798.88	497.64	-748.21	798.27	113.56	-704.93	946.62	468.95	-735.4	937.92	135.8	-849.25	892.37	323.37	-571.82	605.71	467.25	-497.13	555.86	418.51	-555.68	519.59	442.97	-517.8	640.54	440.96	-512.13	456.41	419.69	-534.89	447.92	278.31	-577.06	247.44	407.66	-502.36	172.04	376.14	-567.65	175.45	393.71	-506.12	239.97	395.25	-553.56	86	375.1	-547.09	100.7	291.77	-614.7	70.724	319.7	-599.59	38.871	292.84	-609.77	40.351	356.36	-447.33	41.946	396.42	-415.7	34.396	289.66	-368.38	64.381	344	-790.28	575.62	149.08	-720.53	490.48	137.24	-795.11	486.33	167.31	-722.83	584.88	123.17	-753.78	413.43	145.29	-735.73	403.18	282	-928.52	343.92	166.83	-939.55	233.58	172.82	-981.29	293.83	185.21	-890.97	291.24	156.04	-1040.7	186.25	195	-1025.7	182.29	275.89	-1101.6	207.82	232.69	-1110.1	191.64	271.49	-1121.4	182.16	210.99	-1023	54.202	189.82	-992.69	64.348	295.17	-943.98	41.973	251.95	-745.69	1372.9	302.08	-829.02	1123.6	305.13
133	0.55	-563.9	1060.3	308.27	-666.1	1306.1	449.65	-661.79	1303.1	156.89	-595.42	1591	307	-596.58	904.9	405.18	-602.06	884.25	192.13	-814.35	940.25	361.79	-822.42	942.07	288.75	-647.51	799.65	498.02	-741.45	797.44	113.63	-699.27	947.17	469.05	-729.3	938.08	135.92	-843.38	892.52	323.26	-566.56	605.89	467.44	-492.09	555.78	418.63	-550.75	519.71	443.15	-512.43	640.52	441.11	-507.34	456.26	419.58	-530.13	448.23	278.36	-574.5	247.71	408.09	-500.83	171.48	375.95	-565.99	175.58	393.99	-503.7	239.43	395.14	-553.42	85.993	375.15	-546.96	100.65	291.92	-614.77	70.876	319.78	-599.74	38.996	292.91	-609.91	40.466	356.42	-447.38	41.755	396.44	-415.76	34.018	289.62	-368.3	63.803	343.99	-781.02	574.35	148.41	-710.19	490.18	135.78	-784.59	484.89	166.15	-713.78	584.62	122.28	-742.49	412.82	143.52	-722.91	402.02	280.2	-917.58	346.14	165.73	-930.52	236.01	171.7	-971.19	296.93	184.31	-881.11	292.76	154.78	-1032.3	190.55	194.09	-1016.9	186.25	274.86	-1091.7	214.59	231.82	-1100.8	199.02	270.81	-1112.8	189.72	210.39	-1019.8	57.365	189.48	-988.34	66.736	294.46	-941.33	41.344	251.07	-739.89	1373.2	302.99	-823.2	1123.8	305.88
134	0.55417	-558.13	1060.8	308.42	-659.9	1306.3	450.21	-656.4	1303.5	157.5	-589.58	1591.3	307.71	-590.76	905.59	405.64	-596.25	884.53	192.67	-808.62	940.59	361.57	-816.57	942.21	288.48	-641.7	800.43	498.39	-734.74	796.67	113.73	-693.68	947.81	469.13	-723.26	938.26	136.03	-837.56	892.74	323.13	-561.47	606.04	467.66	-487.25	555.61	418.78	-546.04	519.81	443.36	-507.19	640.43	441.29	-502.84	456.02	419.56	-525.6	448.45	278.46	-572.14	247.93	408.49	-499.43	170.92	375.8	-564.47	175.7	394.24	-501.47	238.9	395.07	-553.31	85.986	375.2	-546.85	100.62	292.07	-614.85	70.997	319.88	-599.88	39.106	292.99	-610.03	40.548	356.49	-447.43	41.61	396.47	-415.83	33.736	289.59	-368.25	63.344	344	-771.73	573.19	147.72	-699.82	490.01	134.3	-774.02	483.57	164.97	-704.71	584.47	121.36	-731.1	412.34	141.75	-709.92	401.04	278.42	-906.41	348.39	164.64	-921.2	238.49	170.63	-960.82	300.05	183.44	-871	294.34	153.54	-1023.5	194.85	193.23	-1007.8	190.19	273.88	-1081.4	221.27	231	-1091.1	206.28	270.17	-1103.7	197.23	209.85	-1016.3	60.714	189.11	-983.51	69.228	293.69	-938.29	40.778	250.08	-734.1	1373.5	303.87	-817.4	1124.2	306.61
135	0.55833	-552.39	1061.3	308.55	-653.72	1306.5	450.75	-651.01	1304	158.09	-583.75	1591.7	308.42	-585	906.37	406.09	-590.49	884.84	193.21	-802.93	941	361.33	-810.76	942.41	288.21	-635.97	801.22	498.75	-728.08	795.98	113.85	-688.17	948.52	469.2	-717.29	938.43	136.13	-831.79	893.02	322.98	-556.55	606.15	467.9	-482.61	555.37	418.96	-541.56	519.85	443.58	-502.1	640.27	441.5	-498.65	455.7	419.6	-521.31	448.55	278.6	-569.96	248.12	408.85	-498.15	170.38	375.71	-563.1	175.8	394.46	-499.42	238.37	395.06	-553.23	85.979	375.26	-546.77	100.6	292.23	-614.94	71.09	319.97	-600	39.199	293.06	-610.15	40.602	356.56	-447.48	41.503	396.52	-415.9	33.534	289.58	-368.23	62.989	344.02	-762.43	572.14	147.01	-689.43	489.98	132.81	-763.4	482.38	163.78	-695.64	584.45	120.41	-719.62	411.99	140.01	-696.78	400.27	276.66	-895.02	350.68	163.56	-911.62	241.01	169.61	-950.19	303.19	182.6	-860.67	295.99	152.32	-1014.4	199.14	192.42	-998.32	194.09	272.95	-1070.8	227.82	230.25	-1080.9	213.37	269.57	-1094.3	204.62	209.37	-1012.2	64.222	188.71	-978.17	71.802	292.87	-934.8	40.299	248.99	-728.32	1373.9	304.73	-811.63	1124.5	307.3
136	0.5625	-546.68	1061.9	308.66	-647.57	1306.8	451.27	-645.65	1304.6	158.67	-577.92	1592	309.12	-579.31	907.2	406.5	-584.75	885.19	193.71	-797.28	941.47	361.08	-805	942.68	287.93	-630.32	802.01	499.09	-721.48	795.38	114	-682.71	949.29	469.25	-711.38	938.6	136.22	-826.07	893.37	322.83	-551.8	606.22	468.15	-478.18	555.03	419.16	-537.3	519.86	443.81	-497.17	640.03	441.73	-494.77	455.29	419.72	-517.3	448.54	278.79	-567.98	248.28	409.15	-497	169.85	375.66	-561.85	175.87	394.66	-497.54	237.84	395.08	-553.16	85.971	375.32	-546.71	100.59	292.38	-615.03	71.158	320.07	-600.11	39.278	293.13	-610.25	40.632	356.63	-447.53	41.426	396.56	-415.97	33.399	289.57	-368.22	62.72	344.05	-753.12	571.22	146.29	-679.04	490.11	131.33	-752.75	481.34	162.61	-686.58	584.55	119.45	-708.08	411.8	138.28	-683.54	399.72	274.94	-883.46	353	162.52	-901.79	243.58	168.64	-939.32	306.32	181.8	-850.12	297.7	151.12	-1005	203.4	191.65	-988.49	197.92	272.09	-1059.8	234.19	229.58	-1070.4	220.22	269.03	-1084.4	211.84	208.99	-1007.7	67.857	188.29	-972.28	74.433	291.99	-930.83	39.932	247.79	-722.55	1374.3	305.57	-805.87	1124.9	307.96
137	0.56667	-541	1062.4	308.76	-641.43	1307.2	451.77	-640.3	1305.2	159.22	-572.09	1592.5	309.81	-573.67	908.09	406.89	-579.04	885.56	194.19	-791.67	942.01	360.84	-799.29	943.02	287.65	-624.76	802.79	499.43	-714.95	794.87	114.18	-677.31	950.12	469.3	-705.54	938.78	136.3	-820.4	893.78	322.67	-547.23	606.25	468.42	-473.95	554.62	419.38	-533.29	519.82	444.04	-492.39	639.72	441.98	-491.21	454.82	419.9	-513.59	448.4	279.01	-566.17	248.4	409.4	-495.97	169.33	375.66	-560.74	175.94	394.82	-495.84	237.32	395.14	-553.12	85.962	375.39	-546.66	100.58	292.53	-615.13	71.206	320.16	-600.21	39.343	293.19	-610.34	40.643	356.69	-447.58	41.371	396.62	-416.03	33.316	289.57	-368.22	62.524	344.08	-743.83	570.43	145.57	-668.66	490.39	129.85	-742.08	480.45	161.46	-677.55	584.78	118.49	-696.49	411.76	136.59	-670.26	399.41	273.27	-871.73	355.34	161.5	-891.73	246.17	167.73	-928.24	309.45	181.06	-839.39	299.48	149.97	-995.3	207.61	190.96	-978.35	201.67	271.29	-1048.5	240.35	229.02	-1059.5	226.79	268.57	-1074.2	218.84	208.7	-1002.6	71.586	187.84	-965.83	77.094	291.06	-926.32	39.7	246.5	-716.78	1374.7	306.38	-800.12	1125.4	308.6
